<svg xmlns="http://www.w3.org/2000/svg" version="1.1" xmlns:xlink="http://www.w3.org/1999/xlink" xmlns:svgjs="http://svgjs.dev/svgjs" width="2000" height="1252" viewBox="0 0 2000 1252"><g transform="matrix(1,0,0,1,-1.2121212121212466,-2.01935483870966)"><svg viewBox="0 0 396 248" data-background-color="#ffffff" preserveAspectRatio="xMidYMid meet" height="1252" width="2000" xmlns="http://www.w3.org/2000/svg" xmlns:xlink="http://www.w3.org/1999/xlink"><g id="tight-bounds" transform="matrix(1,0,0,1,0.2400000000000091,0.4000000000000057)"><svg viewBox="0 0 395.52 247.2" height="247.2" width="395.52"><g><svg></svg></g><g><svg viewBox="0 0 395.52 247.2" height="247.2" width="395.52"><g transform="matrix(1,0,0,1,83.23318575197888,47.215199999999996)"><svg viewBox="0 0 229.05362849604222 152.7696" height="152.7696" width="229.05362849604222"><g><svg viewBox="0 0 229.05362849604222 152.7696" height="152.7696" width="229.05362849604222"><g><svg viewBox="0 0 229.05362849604222 152.7696" height="152.7696" width="229.05362849604222"><g><svg viewBox="0 0 229.05362849604222 152.7696" height="152.7696" width="229.05362849604222"><g id="textblocktransform"><svg viewBox="0 0 229.05362849604222 152.7696" height="152.7696" width="229.05362849604222" id="textblock"><g><svg viewBox="0 0 229.05362849604222 152.7696" height="152.7696" width="229.05362849604222"><g transform="matrix(1,0,0,1,0,0)"><svg width="229.05362849604222" viewBox="3.93 -37.01 55.49 37.01" height="152.7696" data-palette-color="#ff908b"><path d="M6.71 0L6.71 0Q6.81-0.85 7.19-1.61 7.57-2.37 8.14-2.94 8.72-3.52 9.45-3.85 10.18-4.17 10.99-4.17L10.99-4.17 19.95-4.17 19.95-10.11 7.15-16.48Q5.69-17.21 4.81-18.7 3.93-20.19 3.93-22.41L3.93-22.41 3.93-30.81Q3.93-32.1 4.28-33.24 4.64-34.38 5.26-35.22 5.88-36.06 6.71-36.54 7.54-37.01 8.5-37.01L8.5-37.01 22-37.01Q22.95-37.01 23.78-36.54 24.61-36.06 25.23-35.22 25.85-34.38 26.22-33.24 26.59-32.1 26.59-30.81L26.59-30.81 26.59-23.58 20.75-23.58 20.75-32.84 9.77-32.84 9.77-21.26 23-14.5Q23.63-14.18 24.15-13.62 24.66-13.06 25.02-12.32 25.39-11.57 25.59-10.67 25.78-9.77 25.78-8.79L25.78-8.79 25.78-6.15Q25.78-4.88 25.42-3.76 25.05-2.64 24.43-1.81 23.8-0.98 22.97-0.49 22.14 0 21.19 0L21.19 0 6.71 0ZM32.44 0L32.44 0Q32.52-0.83 32.9-1.6 33.27-2.37 33.85-2.93 34.42-3.49 35.15-3.83 35.89-4.17 36.72-4.17L36.72-4.17 37.74-4.17 37.74-30.81Q37.74-32.1 38.11-33.24 38.47-34.38 39.1-35.22 39.72-36.06 40.56-36.54 41.4-37.01 42.36-37.01L42.36-37.01 50.17-37.01 50.17-33.13 43.55-33.13 43.55-10.16Q43.55-8.89 43.2-7.84 42.84-6.79 42.32-6.01 41.79-5.22 41.16-4.75 40.52-4.27 39.96-4.17L39.96-4.17 54.27-4.17 54.27-9.55 59.42-9.55 59.42-4.15Q59.42-3.27 59.06-2.51 58.69-1.76 58.09-1.2 57.49-0.63 56.72-0.32 55.95 0 55.15 0L55.15 0 32.44 0Z" opacity="1" transform="matrix(1,0,0,1,0,0)" fill="#ff908b" class="wordmark-text-0" data-fill-palette-color="primary" id="text-0"></path></svg></g></svg></g></svg></g></svg></g></svg></g></svg></g></svg></g><path d="M265.534 41.215L265.534 0 18.334 0 18.334 247.2 265.534 247.2 265.534 205.985 251.758 205.985 251.758 233.423 32.111 233.423 32.111 13.777 251.758 13.777 251.758 41.215Z" fill="#ff908b" stroke="transparent" data-fill-palette-color="tertiary"></path></svg></g><defs></defs></svg><rect width="395.52" height="247.2" fill="none" stroke="none" visibility="hidden"></rect></g></svg></g></svg>