<svg xmlns="http://www.w3.org/2000/svg" version="1.1" xmlns:xlink="http://www.w3.org/1999/xlink" xmlns:svgjs="http://svgjs.dev/svgjs" width="2000" height="1999" viewBox="0 0 2000 1999"><g transform="matrix(1,0,0,1,-0.431486880466764,-0.4312711370263287)"><svg viewBox="0 0 343 343" data-background-color="#ffffff" preserveAspectRatio="xMidYMid meet" height="1999" width="2000" xmlns="http://www.w3.org/2000/svg" xmlns:xlink="http://www.w3.org/1999/xlink"><g id="tight-bounds" transform="matrix(1,0,0,1,0.0740000000000407,0.07400000000001228)"><svg viewBox="0 0 342.85155851775386 342.85155851775386" height="342.85155851775386" width="342.85155851775386"><g><svg></svg></g><g><svg viewBox="0 0 342.85155851775386 342.85155851775386" height="342.85155851775386" width="342.85155851775386"><g><path d="M0 171.426c0-94.676 76.75-171.426 171.426-171.426 94.676 0 171.426 76.75 171.426 171.426 0 94.676-76.75 171.426-171.426 171.426-94.676 0-171.426-76.75-171.426-171.426zM171.426 340.469c93.36 0 169.043-75.683 169.043-169.043 0-93.36-75.683-169.043-169.043-169.044-93.36 0-169.043 75.683-169.044 169.044 0 93.36 75.683 169.043 169.044 169.043z" data-fill-palette-color="tertiary" fill="#f67b95" stroke="transparent"></path><ellipse rx="164.56874808852186" ry="164.56874808852186" cx="171.42577925887693" cy="171.42577925887693" fill="#f67b95" stroke="transparent" stroke-width="0" fill-opacity="1" data-fill-palette-color="tertiary"></ellipse></g><g transform="matrix(1,0,0,1,64.84655864529837,136.84361043023887)"><svg viewBox="0 0 213.1584412271571 69.16433765727612" height="69.16433765727612" width="213.1584412271571"><g><svg viewBox="0 0 213.1584412271571 69.16433765727612" height="69.16433765727612" width="213.1584412271571"><g><svg viewBox="0 0 213.1584412271571 69.16433765727612" height="69.16433765727612" width="213.1584412271571"><g transform="matrix(1,0,0,1,0,42.74633540780891)"><svg viewBox="0 0 213.1584412271571 26.418002249467207" height="26.418002249467207" width="213.1584412271571"><g id="textblocktransform"><svg viewBox="0 0 213.1584412271571 26.418002249467207" height="26.418002249467207" width="213.1584412271571" id="textblock"><g><svg viewBox="0 0 213.1584412271571 26.418002249467207" height="26.418002249467207" width="213.1584412271571"><g transform="matrix(1,0,0,1,0,0)"><svg width="213.1584412271571" viewBox="3.45 -35.7 293.68 36.400000000000006" height="26.418002249467207" data-palette-color="#000000"><path d="M3.45-1.1L3.45-1.1 3.75-4.1 4.05-4.1Q6-2.4 8.45-1.45 10.9-0.5 13.3-0.5L13.3-0.5Q16.7-0.5 18.8-2.38 20.9-4.25 20.9-7.4L20.9-7.4Q20.9-9.15 20.13-10.65 19.35-12.15 17.57-13.7 15.8-15.25 12.7-17.05L12.7-17.05Q10.55-18.3 8.6-19.68 6.65-21.05 5.4-22.88 4.15-24.7 4.15-27.25L4.15-27.25Q4.15-31.05 6.9-33.38 9.65-35.7 14.15-35.7L14.15-35.7Q16.15-35.7 18.45-35.27 20.75-34.85 22-34.2L22-34.2 21.75-31.4 21.45-31.4Q18.6-34.5 14.15-34.5L14.15-34.5Q10.95-34.5 9-32.88 7.05-31.25 7.05-28.5L7.05-28.5Q7.05-26.45 8.13-24.98 9.2-23.5 10.9-22.33 12.6-21.15 14.55-20.05L14.55-20.05Q16.8-18.75 18.93-17.3 21.05-15.85 22.43-13.83 23.8-11.8 23.8-8.75L23.8-8.75Q23.8-5.95 22.5-3.83 21.2-1.7 18.82-0.5 16.45 0.7 13.3 0.7L13.3 0.7Q11.3 0.7 8.6 0.2 5.9-0.3 3.45-1.1ZM44.05 0L40.65 0 40.65-34Q39.9-34 37.55-33.7L37.55-33.7 27.75-32.45 27.75-35 56.95-35 56.95-32.45 47.15-33.7Q44.8-34 44.05-34L44.05-34 44.05 0ZM80.45 0L65.05 0 65.05-35 80.3-35 80.3-32.55 71.55-33.7Q69.25-34 68.45-34L68.45-34 68.45-18.75Q69.09-18.75 71.55-18.9L71.55-18.9 79.75-19.4 79.75-17.1 71.55-17.6Q69.09-17.75 68.45-17.75L68.45-17.75 68.45-1Q69.34-1 71.59-1.3L71.59-1.3 80.45-2.45 80.45 0ZM101.94 0.7L86.04-35 89.79-35 103.44-3.9 103.74-3.9 115.19-35 118.94-35 103.04 0.7 101.94 0.7ZM142.14 0L126.74 0 126.74-35 141.99-35 141.99-32.55 133.24-33.7Q130.94-34 130.14-34L130.14-34 130.14-18.75Q130.79-18.75 133.24-18.9L133.24-18.9 141.44-19.4 141.44-17.1 133.24-17.6Q130.79-17.75 130.14-17.75L130.14-17.75 130.14-1Q131.04-1 133.29-1.3L133.29-1.3 142.14-2.45 142.14 0ZM155.29 0L151.89 0 153.14-35.7 153.74-35.7 178.89-5.3 179.19-5.3 178.09-35 181.49-35 180.24 0.7 179.64 0.7 154.49-29.7 154.19-29.7 155.29 0ZM207.23 0L207.23-35 210.63-35 210.63-1Q211.58-1 213.63-1.3L213.63-1.3 221.93-2.55 221.93 0 207.23 0ZM229.73 0L226.08 0 239.53-35 242.63-35 256.08 0 252.43 0 246.23-16.4 234.88-16.4 229.73 0ZM240.18-32.4L239.88-32.4 235.23-17.6 245.78-17.6 240.18-32.4ZM293.53-35L297.13-35 297.13 0 293.73 0 293.73-32.1 293.43-32.1 281.33-8.9 279.78-8.9 266.03-29.35 265.73-29.35 266.83 0 263.43 0 264.68-35.7 265.68-35.7 281.43-12.3 281.73-12.3 293.53-35Z" opacity="1" transform="matrix(1,0,0,1,0,0)" fill="#000000" class="wordmark-text-0" data-fill-palette-color="quaternary" id="text-0"></path></svg></g></svg></g></svg></g></svg></g><g transform="matrix(1,0,0,1,83.69982170541998,0)"><svg viewBox="0 0 45.75879781631715 36.509679108763684" height="36.509679108763684" width="45.75879781631715"><g><svg xmlns="http://www.w3.org/2000/svg" xmlns:xlink="http://www.w3.org/1999/xlink" version="1.1" x="0" y="0" viewBox="1 13 94 75" enable-background="new 0 0 96 96" xml:space="preserve" height="36.509679108763684" width="45.75879781631715" class="icon-icon-0" data-fill-palette-color="quaternary" id="icon-0"><g fill="#000000" data-fill-palette-color="quaternary"><path fill="#000000" d="M90 82H86V80H90C91.654 80 93 78.654 93 77V18C93 16.346 91.654 15 90 15H6C4.346 15 3 16.346 3 18V77C3 78.654 4.346 80 6 80H52V82H6C3.243 82 1 79.757 1 77V18C1 15.243 3.243 13 6 13H90C92.757 13 95 15.243 95 18V77C95 79.757 92.757 82 90 82" data-fill-palette-color="quaternary"></path></g><g fill="#000000" data-fill-palette-color="quaternary"><rect x="2" y="26" fill="#000000" width="91" height="2" data-fill-palette-color="quaternary"></rect></g><g fill="#000000" data-fill-palette-color="quaternary"><path fill="#000000" d="M10.5 22C9.673 22 9 21.327 9 20.5S9.673 19 10.5 19 12 19.673 12 20.5 11.327 22 10.5 22M10.5 20A0.5 0.5 0 1 0 10.5 21 0.5 0.5 0 0 0 10.5 20" data-fill-palette-color="quaternary"></path></g><g fill="#000000" data-fill-palette-color="quaternary"><path fill="#000000" d="M17.5 22C16.673 22 16 21.327 16 20.5S16.673 19 17.5 19 19 19.673 19 20.5 18.327 22 17.5 22M17.5 20A0.5 0.5 0 1 0 17.5 21 0.5 0.5 0 0 0 17.5 20" data-fill-palette-color="quaternary"></path></g><g fill="#000000" data-fill-palette-color="quaternary"><path fill="#000000" d="M24.5 22C23.673 22 23 21.327 23 20.5S23.673 19 24.5 19 26 19.673 26 20.5 25.327 22 24.5 22M24.5 20A0.5 0.5 0 1 0 24.5 21 0.5 0.5 0 0 0 24.5 20" data-fill-palette-color="quaternary"></path></g><g fill="#000000" data-fill-palette-color="quaternary"><g fill="#000000" data-fill-palette-color="quaternary"><path fill="#000000" d="M77 88H61C58.243 88 56 85.757 56 83V48C56 45.243 58.243 43 61 43H77C79.757 43 82 45.243 82 48V83C82 85.757 79.757 88 77 88M61 45C59.346 45 58 46.346 58 48V83C58 84.654 59.346 86 61 86H77C78.654 86 80 84.654 80 83V48C80 46.346 78.654 45 77 45z" data-fill-palette-color="quaternary"></path></g><g fill="#000000" data-fill-palette-color="quaternary"><path fill="#000000" d="M81 53H57A1 1 0 0 1 57 51H81A1 1 0 0 1 81 53" data-fill-palette-color="quaternary"></path></g><g fill="#000000" data-fill-palette-color="quaternary"><path fill="#000000" d="M81 80H57A1 1 0 0 1 57 78H81A1 1 0 0 1 81 80" data-fill-palette-color="quaternary"></path></g></g></svg></g></svg></g><g></g></svg></g></svg></g></svg></g></svg></g><defs></defs></svg><rect width="342.85155851775386" height="342.85155851775386" fill="none" stroke="none" visibility="hidden"></rect></g></svg></g></svg>